# xmcd
#
# Track frame offsets: 
#        150
#        14075
#        25908
#        42018
#        57362
#
# Disc length: 957 seconds
#
# Revision: 0
# Processed by: cddbd v1.5.2PL0 Copyright (c) Steve Scherf et al.
# Submitted via: ExactAudioCopy v0.99pb4
#
DISCID=3a03bb05
DTITLE=Tahmias Hilltot - Tahmias Hilltot
DYEAR=2008
DGENRE=Country
TTITLE0=Florence
TTITLE1=I am from the Harbour
TTITLE2=Today it's Pouring
TTITLE3=I'm Surprised
TTITLE4=Girls
EXTD=
EXTT0=
EXTT1=
EXTT2=
EXTT3=
EXTT4=
PLAYORDER=
